<?xml version="1.0" encoding="utf-8"?>
<!-- Generator: Adobe Illustrator 28.0.0, SVG Export Plug-In . SVG Version: 6.00 Build 0)  -->
<svg version="1.1" id="Layer_2_00000096766756419066840290000006455474856482468514_"
	 xmlns="http://www.w3.org/2000/svg" xmlns:xlink="http://www.w3.org/1999/xlink" x="0px" y="0px" viewBox="0 0 322.2 447.7"
	 style="enable-background:new 0 0 322.2 447.7;" xml:space="preserve">
<style type="text/css">
	.st0{fill:#D5C828;}
	.st1{fill:#15000D;}
</style>
<polygon class="st0" points="204.4,132.7 202.2,163.8 234.4,192 264.7,194.9 277,166.2 244.4,126.2 "/>
<path class="st1" d="M312.4,195.3c-11.1-10.7-16.4-17.2-16.4-27.4s-6.3-26.4-11.6-39.3s-24.7-35.5-43-45.9c-5.3-3-10.7-6.1-14.3-8.1
	c-2.1-1.2-2.7-3.9-1.3-5.9c6-8.2,20.6-27.8,26.3-33.2c8.7-8.2,9.5-12,2.4-19.8c-5.9-6.6-14-0.8-15-0.1c-0.1,0.1-0.2,0.1-0.3,0.2
	l-34.8,21.8c-1.2,0.7-1.9,2-1.9,3.4v60.2c0,1.9-1.3,3.5-3.1,3.9c-6.5,1.5-22.2,6-39.6,17.3c-6.8,4.4-12.3,8.6-16.3,11.8
	c-2.8,2.2-6.9,0-6.6-3.5c1.5-15.7,5.9-46.5,19.1-66c17.8-26.6,27.1-31.9,35.2-39.5c4.4-4.1,15.3-9.1,6.3-21.4
	C185.9-12.1,146.7,26,146.7,26s-34.2,30.6-37.2,36.5c-13.7,26.8-26.5,24.9-41,40.8c-27.5,30.1-13,11.5-42.1,53.7
	s-40.1,119.3-3.1,196.4c35.4,73.8,96.7,89.2,145.3,93.8c41,3.8,76.8-16.8,88.4-24.4c2.1-1.4,2.5-4.3,0.8-6.1
	c-8-8.8-29.2-33.4-37.6-55.1c-7.9-20.3-11-41.9-12.1-50.5c-0.3-2.1-2.1-3.7-4.3-3.5c-11.3,0.8-43.1,2-38.5-8.8s17.6-13.9,20.1-14.4
	c0.3,0,0.5-0.1,0.8,0c5.8,0.2,79.5,2.5,93.3-6.1c22.8-14.3,27.3-27.6,36.6-46.2C325.7,213.5,323.5,205.9,312.4,195.3L312.4,195.3z
	 M257.8,183.4c-4.6,1.8-10,0.4-14.5-1.1c-10.9-3.6-18.6-11.1-24.9-20.3c-0.1-0.1-0.2-0.2-0.3-0.4c-2.4-2.6-4-5.5-4.3-8.6
	c-1.2-12.6,17-10.2,24.5-8.3c11.9,3,21.1,14.8,24.4,26.4C264.2,176.1,262.9,181.4,257.8,183.4L257.8,183.4z"/>
</svg>